<svg xmlns="http://www.w3.org/2000/svg" version="1.1" xmlns:xlink="http://www.w3.org/1999/xlink" xmlns:svgjs="http://svgjs.dev/svgjs" width="100%" height="100%" viewBox="0 0 1000 600"><rect width="1000" height="600" x="0" y="0" fill="#bd342c"/><g><rect width="333.3333333333333" height="333.3333333333333" rx="13.333333333333334" ry="13.333333333333334" y="266.9895168692731" fill="#fb6100" transform="matrix(0.5106892734223221,0,0,0.5106892734223221,0,78.53646785220923)" x="244.76734924316406"/><path d="M319.81565196902034 508.6561823960981L302.4950993736486 508.6561823960981L302.4950993736486 358.65618443695257L350.644898094373 358.65618443695257Q367.49732764662656 358.65618443695257 377.82947195544864 364.440847755484Q388.1950536244934 370.2255110740155 393.14378293745676 379.7217213772695Q398.0590748901974 389.25136904074617 398.0590748901974 401.0547571993682L398.0590748901974 401.0547571993682Q398.0590748901974 409.71503349705404 395.41752343260214 417.1715648267218Q392.7759719750068 424.6280961563895 387.12505809736626 430.41275947492096Q381.44070685950294 436.19742279345246 372.7804305618171 439.3070972941659Q364.12015426413126 442.4502091551021 351.8486430623911 442.4502091551021L351.8486430623911 442.4502091551021L319.81565196902034 442.4502091551021L319.81565196902034 508.6561823960981ZM319.81565196902034 374.5723679029698L319.81565196902034 427.5371464957666L349.90927616947306 427.5371464957666Q360.97704240319507 427.5371464957666 367.7313891681856 424.2602851939395Q374.4857359331761 421.01686125233516 377.5954104338895 415.13188585313554Q380.7385222948257 409.21347309371316 380.7385222948257 401.5228802424864L380.7385222948257 401.5228802424864Q380.7385222948257 394.0663489128186 377.5954104338895 388.04762407272807Q374.4857359331761 382.0288992326375 367.7313891681856 378.2839148876923Q360.97704240319507 374.5723679029698 350.1433376910321 374.5723679029698L350.1433376910321 374.5723679029698L319.81565196902034 374.5723679029698ZM439.2204653243722 508.6561823960981L422.1339742505596 508.6561823960981L422.1339742505596 358.65618443695257L466.43847654567054 358.65618443695257Q484.26058954438315 358.65618443695257 495.1946063372143 363.9727247123659Q506.1620604902681 369.2558276275565 511.2111018838997 378.8857873717013Q516.2601432775311 388.51574711584624 516.2601432775311 401.5228802424864L516.2601432775311 401.5228802424864Q516.2601432775311 409.9490950186131 512.5485962928086 418.3753097947399Q508.8036119478635 426.80152457086666 501.94895310220477 433.0543109325163Q495.0942942565461 439.3070972941659 485.6983960339603 441.71458723020214L485.6983960339603 441.71458723020214L520.3729385849264 508.6561823960981L501.5811421397548 508.6561823960981L468.37784343858857 442.4502091551021L439.2204653243722 442.4502091551021L439.2204653243722 508.6561823960981ZM439.2204653243722 374.5723679029698L439.2204653243722 427.5371464957666L468.37784343858857 427.5371464957666Q484.4946510659422 427.5371464957666 491.71712087405086 420.4149887683261Q498.9395906821595 413.32626840110834 498.9395906821595 401.5228802424864L498.9395906821595 401.5228802424864Q498.9395906821595 394.0663489128186 495.79647882122333 387.9138746318372Q492.68680432050985 381.79483771107846 485.93245755551936 378.18360280702416Q479.2115481507516 374.5723679029698 468.37784343858857 374.5723679029698L468.37784343858857 374.5723679029698L439.2204653243722 374.5723679029698Z " fill="#171717" transform="matrix(0.5106892734223221,0,0,0.5106892734223221,0,78.53646785220923)"/><path d="M674.2961265836825 477.54377160229205L661.4340184410314 477.54377160229205L661.4340184410314 366.15493544798153L697.1896858646176 366.15493544798153Q709.7041694628726 366.15493544798153 717.3767397641839 370.4505816037318Q725.0741403900947 374.74622775948205 728.7490284308521 381.79803994580044Q732.3990861470099 388.8746824567185 732.3990861470099 397.63978704041705L732.3990861470099 397.63978704041705Q732.3990861470099 404.0708411117426 730.4374905036326 409.60800349747853Q728.4758948602553 415.1451658832144 724.2795700029039 419.4408120389647Q720.0584148209527 423.73645819471494 713.6273607496272 426.04567838248823Q707.1963066783017 428.3797288948612 698.0835775502071 428.3797288948612L698.0835775502071 428.3797288948612L674.2961265836825 428.3797288948612L674.2961265836825 477.54377160229205ZM674.2961265836825 377.9741699574447L674.2961265836825 417.3054041233894L696.6434187234238 417.3054041233894Q704.8622561659287 417.3054041233894 709.8779817350705 414.8720323126176Q714.8937073042125 412.4634908264454 717.2029274919857 408.09335369689603Q719.5369780043588 403.69838624274695 719.5369780043588 397.987411584813L719.5369780043588 397.987411584813Q719.5369780043588 392.4502491990771 717.2029274919857 387.9807907711289Q714.8937073042125 383.5113323431806 709.8779817350705 380.7303359880128Q704.8622561659287 377.9741699574447 696.8172309956218 377.9741699574447L696.8172309956218 377.9741699574447L674.2961265836825 377.9741699574447ZM779.7753454832615 479.50536724566933L779.7753454832615 479.50536724566933Q774.9582625109173 479.50536724566933 770.662616355167 478.0900387434857Q766.3669701994166 476.6498799167024 762.890724755457 473.6950712893366Q759.3896489868974 470.7402626619708 756.9066165269262 466.27080423402253Q754.3987537423552 461.80134580607427 753.0579162139708 455.5441040069467Q751.7170786855863 449.2868622078192 751.7170786855863 441.44047963431L751.7170786855863 441.44047963431L751.8908909577842 395.8520036692378L764.4053745560394 395.8520036692378L764.4053745560394 441.44047963431Q764.4053745560394 449.1130499356212 765.8455333828227 454.4764000491591Q767.2608618850063 459.839750162697 769.8680459679762 463.06769236065963Q772.4503997263463 466.27080423402253 775.8521541965068 467.71096306080585Q779.2539086666675 469.1511218875892 783.0032876812242 469.1511218875892L783.0032876812242 469.1511218875892Q787.2989338369744 469.1511218875892 791.2221251237289 467.4378294902091Q795.1453164104836 465.74936741742863 798.2739373100472 462.347612947268Q801.4025582096111 458.9458584771073 803.1903415807905 453.58250836356945Q804.9781249519698 448.2191582500315 804.9781249519698 440.89421249311636L804.9781249519698 440.89421249311636L804.9781249519698 395.8520036692378L817.4926085502249 395.8520036692378L817.4926085502249 464.85547573183896Q817.4926085502249 468.05858760520186 817.7657421208216 471.18720850476564Q818.0388756914185 474.3158294043294 819.2803919214042 477.54377160229205L819.2803919214042 477.54377160229205L806.9645509199466 477.54377160229205Q806.0706592343571 475.40836368671677 805.6982043653613 473.3474467449406Q805.3505798209654 471.2865298031645 805.2512585225666 469.1511218875892Q805.1767675487674 466.9908836474142 805.1767675487674 465.0292880040369L805.1767675487674 465.0292880040369Q803.1903415807905 468.43104247419757 800.5086665240215 471.1127175309665Q797.8269914672525 473.79439258773544 794.5245582954907 475.6566669327139Q791.2221251237289 477.54377160229205 787.5472370829715 478.5369845862806Q783.8971793668137 479.50536724566933 779.7753454832615 479.50536724566933ZM864.3474310698824 508.65616832573187L864.3474310698824 508.65616832573187Q856.6500304439716 508.65616832573187 849.7720305298511 505.800680996765Q842.8940306157308 502.9203633431983 838.2507599155845 497.2093886852644L838.2507599155845 497.2093886852644L845.4018934003018 487.5503924159762L846.4695973580893 486.1350639137926L847.537301315877 486.83031300258455Q847.884925860273 488.2704718293679 848.4311930014667 489.61130935775236Q848.9774601426603 490.9521468861368 850.9390557860376 493.08755480171214L850.9390557860376 493.08755480171214Q853.4469185706085 495.0739807696891 856.7493517423703 496.3154969996748Q860.0517849141321 497.55701322966036 864.1736187976845 497.55701322966036L864.1736187976845 497.55701322966036Q869.5369689112224 497.55701322966036 873.7332937685737 495.14847174348824Q877.9296186259252 492.73993025731613 880.2636691382982 487.6497137143751Q882.5728893260715 482.55949717143403 882.5728893260715 474.3158294043294L882.5728893260715 474.3158294043294L882.5728893260715 406.3800612995159L852.1805720160232 406.3800612995159L852.1805720160232 395.8520036692378L895.6336400655202 395.8520036692378L895.6336400655202 473.6205803155375Q895.6336400655202 485.93642131699494 891.33799390977 493.7331432413046Q887.0423477540197 501.50503484101466 879.9905355677014 505.0806015833733Q872.9138930567833 508.65616832573187 864.3474310698824 508.65616832573187L864.3474310698824 508.65616832573187ZM888.1100517118074 378.66941904623667L888.1100517118074 378.66941904623667Q884.3606726972507 378.66941904623667 881.6789976404818 375.98774398946773Q878.9973225837128 373.30606893269874 878.9973225837128 369.5566899181422L878.9973225837128 369.5566899181422Q878.9973225837128 365.63349863138757 881.6045066666826 362.95182357461863Q884.1868604250527 360.27014851784963 888.1100517118074 360.27014851784963L888.1100517118074 360.27014851784963Q891.8842610509637 360.27014851784963 894.6404270815318 363.02631454841776Q897.4214234366996 365.8073109035856 897.4214234366996 369.5566899181422L897.4214234366996 369.5566899181422Q897.4214234366996 373.30606893269874 894.6404270815318 375.98774398946773Q891.8842610509637 378.66941904623667 888.1100517118074 378.66941904623667ZM989.8398915968297 477.54377160229205L936.9264698748423 477.54377160229205L936.9264698748423 467.1646959196122L957.8336031878002 467.1646959196122L957.8336031878002 406.2062490273179L937.9941738326298 406.2062490273179L937.9941738326298 395.8520036692378L970.7205416550511 395.8520036692378L970.7205416550511 467.1646959196122L989.8398915968297 467.1646959196122L989.8398915968297 477.54377160229205ZM963.5694081703338 378.66941904623667L963.5694081703338 378.66941904623667Q959.8200291557772 378.66941904623667 957.1383540990083 375.98774398946773Q954.4566790422393 373.30606893269874 954.4566790422393 369.5566899181422L954.4566790422393 369.5566899181422Q954.4566790422393 365.63349863138757 957.0390328006093 362.95182357461863Q959.6213865589795 360.27014851784963 963.5694081703338 360.27014851784963L963.5694081703338 360.27014851784963Q967.3187871848903 360.27014851784963 970.0997835400582 363.02631454841776Q972.8559495706262 365.8073109035856 972.8559495706262 369.5566899181422L972.8559495706262 369.5566899181422Q972.8559495706262 373.30606893269874 970.0997835400582 375.98774398946773Q967.3187871848903 378.66941904623667 963.5694081703338 378.66941904623667ZM1061.8974935851957 478.7852878322777L1061.8974935851957 478.7852878322777Q1054.0262806870867 478.7852878322777 1049.0105551179447 476.10361277550874Q1044.0196598734024 473.4219377187398 1041.3379848166337 467.81028435920473Q1038.6563097598646 462.17380067506997 1037.8369090480742 453.58250836356945Q1037.0423386608832 445.0160463766686 1037.3899632052794 433.19681186720544L1037.3899632052794 433.19681186720544L1039.5502014454541 374.92004003168006L1052.9585767292992 373.30606893269874L1054.7463601004783 373.1322566605008L1054.9201723726765 374.3986032150861Q1054.0262806870867 375.6401194450717 1053.405522572094 376.8816356750574Q1052.7847644571011 378.1479822296427 1052.4123095881055 381.1772818308076L1052.4123095881055 381.1772818308076L1050.798338489124 401.38916605497366L1051.3446056303178 404.59227792833656L1050.103089400332 434.0907035527951Q1049.5568222591382 447.69772143343755 1050.798338489124 455.0971581641519Q1052.0646850437092 462.521425219466 1055.2677969170722 465.30242157463374Q1058.495739115035 468.05858760520186 1063.8590892285729 468.05858760520186L1063.8590892285729 468.05858760520186Q1069.7687064833044 468.05858760520186 1074.3126558850518 465.74936741742863Q1078.881435611399 463.41531690505565 1083.872330855941 459.839750162697L1083.872330855941 459.839750162697L1087.8203524672954 470.04501357317884Q1081.7369229403657 474.51447200112716 1075.3058688690403 476.6498799167024Q1068.8748147977149 478.7852878322777 1061.8974935851957 478.7852878322777L1061.8974935851957 478.7852878322777ZM1020.9522883202695 406.3800612995159L1020.9522883202695 395.8520036692378L1079.7753272969885 395.8520036692378L1079.7753272969885 406.3800612995159L1020.9522883202695 406.3800612995159ZM1110.8877240204283 477.54377160229205L1110.8877240204283 358.6561774188683L1123.2035650218859 358.6561774188683L1124.991348393065 358.6561774188683L1124.991348393065 359.897693648854Q1123.9236444352773 360.9902279312413 1123.6505108646807 362.23174416122697Q1123.4022076186834 363.4732603912126 1123.4022076186834 366.52739031697723L1123.4022076186834 366.52739031697723L1123.4022076186834 410.3280829108702Q1126.6053194920464 405.3123573417282 1131.0002869461955 401.6622996255705Q1135.3704240757452 397.987411584813 1140.2868283464882 395.9264946430369Q1145.2032326172312 393.86557770126075 1150.2189581863731 393.86557770126075L1150.2189581863731 393.86557770126075Q1157.5439039432883 393.86557770126075 1163.180387627423 397.26733217142134Q1168.792040986958 400.669086641582 1171.9206618865219 408.16784467069516Q1175.0492827860858 415.69143302440807 1175.0492827860858 428.0321043504652L1175.0492827860858 428.0321043504652L1175.0492827860858 477.54377160229205L1162.5347991878307 477.54377160229205L1162.5347991878307 428.3797288948612Q1162.5347991878307 419.78843658336064 1160.5732035444535 414.6982200404196Q1158.6116079010758 409.60800349747853 1155.2098534309152 407.3732742835044Q1151.8080989607547 405.13854506953027 1147.537283129604 405.13854506953027L1147.537283129604 405.13854506953027Q1144.3093409316416 405.13854506953027 1140.9075864614808 406.2062490273179Q1137.5058319913203 407.27395298510555 1134.3772110917566 409.43419122528053Q1131.2485901921928 411.5695991408558 1128.7655577322216 414.6982200404196Q1126.2576949476506 417.82684093998336 1124.8175361208673 421.77486255133766Q1123.4022076186834 425.6980538380922 1123.4022076186834 430.5151368104365L1123.4022076186834 430.5151368104365L1123.4022076186834 477.54377160229205L1110.8877240204283 477.54377160229205ZM1299.300227083047 477.54377160229205L1286.6119312125943 477.54377160229205L1286.6119312125943 366.15493544798153L1319.5121113072132 366.15493544798153Q1332.7466743188602 366.15493544798153 1340.8661904629662 370.10295705933584Q1349.010536931672 374.0261483460904 1352.7599159462284 381.1772818308076Q1356.5092949607852 388.3284153155248 1356.5092949607852 397.987411584813L1356.5092949607852 397.987411584813Q1356.5092949607852 404.2446533839406 1353.753128930217 410.50189518306814Q1350.9721325750493 416.75913698219574 1345.8819160321077 421.40240768234196Q1340.791699489167 426.04567838248823 1333.8143782766479 427.8334617536675L1333.8143782766479 427.8334617536675L1359.5634248865495 477.54377160229205L1345.608782461511 477.54377160229205L1320.9522701339965 428.3797288948612L1299.300227083047 428.3797288948612L1299.300227083047 477.54377160229205ZM1299.300227083047 377.9741699574447L1299.300227083047 417.3054041233894L1320.9522701339965 417.3054041233894Q1332.9204865910579 417.3054041233894 1338.283836704596 412.01654498365065Q1343.6471868181338 406.75251616851153 1343.6471868181338 397.987411584813L1343.6471868181338 397.987411584813Q1343.6471868181338 392.4502491990771 1341.313136305761 387.88146947273003Q1339.0039161179875 383.33752007098263 1333.988190548846 380.6558450142137Q1328.9972953043034 377.9741699574447 1320.9522701339965 377.9741699574447L1320.9522701339965 377.9741699574447L1299.300227083047 377.9741699574447ZM1414.6122545241124 479.3315549734714L1414.6122545241124 479.3315549734714Q1405.673337668216 479.3315549734714 1398.3483919113005 476.55055861830357Q1391.0234461543855 473.79439258773544 1385.7594173392463 468.43104247419757Q1380.4705581995076 463.06769236065963 1377.6150708705404 455.0971581641519Q1374.7595835415736 447.1514542922439 1374.7595835415736 436.97102120636174L1374.7595835415736 436.97102120636174Q1374.7595835415736 426.5919455236819 1377.7143921689394 418.546920353375Q1380.6443704717058 410.50189518306814 1385.7594173392463 405.0392237711314Q1390.8496338821874 399.6013826837943 1397.7276337963076 396.7458953548274Q1404.6056337104283 393.86557770126075 1412.303034336339 393.86557770126075L1412.303034336339 393.86557770126075Q1419.280355548858 393.86557770126075 1425.3389547511883 396.19962821363373Q1431.422384278118 398.5336787260067 1435.8918427060657 403.25144039995206Q1440.3613011340144 407.9940323984972 1442.968485216984 415.3189781554124Q1445.5508389753545 422.6687542369273 1445.5508389753545 432.6753750506115L1445.5508389753545 432.6753750506115Q1445.5508389753545 434.0907035527951 1445.4515176769555 435.63018367797724Q1445.3770267031564 437.14483347855975 1445.2032144309583 438.5601619807434L1445.2032144309583 438.5601619807434L1387.1002548676306 438.5601619807434Q1387.4478794120269 446.43137487885224 1389.7819299243997 452.24167083518495Q1392.0911501121732 458.0519667915177 1395.8405291267295 461.7268548322752Q1399.6147384658861 465.3769125484329 1404.5311427366291 467.1646959196122Q1409.4475470073721 468.95247929079153 1414.984709393108 468.95247929079153L1414.984709393108 468.95247929079153Q1419.280355548858 468.95247929079153 1423.0297345634149 467.98409663140274Q1426.7791135779717 466.9908836474142 1430.0815467497332 464.9299667056381Q1433.3839799214952 462.89388008846163 1436.0656549782643 459.839750162697L1436.0656549782643 459.839750162697L1443.2167884629812 466.81707137521624Q1439.8398643174205 470.9389052587685 1435.4448968632714 473.79439258773544Q1431.0747597337217 476.6498799167024 1425.885221892382 477.9907174450869Q1420.695684051042 479.3315549734714 1414.6122545241124 479.3315549734714ZM1387.621691684225 428.55354116705917L1387.621691684225 428.55354116705917L1432.4900882359052 428.55354116705917Q1432.4900882359052 422.8425665091253 1430.9754384353228 418.2737867827782Q1429.4607886347403 413.7298373810308 1426.6797922795727 410.4025738846693Q1423.9236262490044 407.10014071290755 1420.074925936049 405.4116786401271Q1416.2262256230938 403.69838624274695 1411.4091426507493 403.69838624274695L1411.4091426507493 403.69838624274695Q1407.1134964949993 403.69838624274695 1403.264796182044 405.13854506953027Q1399.4160958690882 406.5787038963136 1396.2129839957256 409.70732479587735Q1392.9850417977627 412.8359456954411 1390.7503125837889 417.4792163955874Q1388.5155833698145 422.1224870957336 1387.621691684225 428.55354116705917ZM1497.2227444673563 479.3315549734714L1497.2227444673563 479.3315549734714Q1490.9655026682285 479.3315549734714 1484.9813944396979 476.6498799167024Q1478.9724558865673 473.96820485993345 1474.0560516158243 468.6048547463955Q1469.1396473450814 463.24150463285764 1466.2841600161141 455.02266719035276Q1463.4286726871474 446.8038297478479 1463.4286726871474 435.8784869239744L1463.4286726871474 435.8784869239744Q1463.4286726871474 424.6303498803046 1466.4579722883122 416.65981568379686Q1469.5121022140765 408.71411181188887 1474.5029974586191 403.62389526894776Q1479.518723027761 398.5336787260067 1485.6021525546907 396.1003069152349Q1491.6855820816204 393.69176542906274 1497.9428238807477 393.69176542906274L1497.9428238807477 393.69176542906274Q1503.6537985386817 393.69176542906274 1508.2225782650285 395.47954880024207Q1512.7665276667763 397.26733217142134 1516.2676034353358 400.3959530709852Q1519.7438488792955 403.52457397054894 1521.7054445226727 407.8202201262992L1521.7054445226727 407.8202201262992L1521.7054445226727 358.6561774188683L1533.4998487075359 358.6561774188683L1535.2876320787154 358.6561774188683L1535.2876320787154 359.897693648854Q1534.2199281209278 360.9902279312413 1533.9467945503307 362.23174416122697Q1533.6984913043339 363.4732603912126 1533.6984913043339 366.52739031697723L1533.6984913043339 366.52739031697723L1533.872303576532 464.85547573183896Q1533.872303576532 468.05858760520186 1534.1454371471286 471.18720850476564Q1534.3937403931259 474.3158294043294 1535.660086947711 477.54377160229205L1535.660086947711 477.54377160229205L1522.9717910772579 477.54377160229205Q1522.0778993916683 475.40836368671677 1521.7054445226727 473.2481254465418Q1521.3578199782764 471.1127175309665 1521.258498679878 469.05180058919035Q1521.1840077060788 466.9908836474142 1521.1840077060788 464.85547573183896L1521.1840077060788 464.85547573183896Q1518.6761449215078 469.1511218875892 1515.1005781791491 472.453555059351Q1511.5250114367905 475.7559882311127 1507.0555530088423 477.54377160229205Q1502.586094580894 479.3315549734714 1497.2227444673563 479.3315549734714L1497.2227444673563 479.3315549734714ZM1499.1843401107335 468.05858760520186L1499.1843401107335 468.05858760520186Q1505.093957365465 468.05858760520186 1509.1909609244176 465.65004611902975Q1513.3127948079696 463.24150463285764 1515.8206575925406 458.87136750330825Q1518.3036900525121 454.4764000491591 1519.4707153086983 448.66610409282634Q1520.637740564885 442.85580813649364 1520.637740564885 436.2509417929701L1520.637740564885 436.2509417929701Q1520.637740564885 427.1382126648756 1518.3036900525121 419.8877578817595Q1515.9944698647387 412.63730309864343 1510.9787442955967 408.44097824129204Q1505.9878490510546 404.2446533839406 1498.1166361529458 404.2446533839406L1498.1166361529458 404.2446533839406Q1492.7532860394076 404.2446533839406 1488.5569611820565 406.30557032571676Q1484.335806000105 408.36648726749286 1481.5796399695373 412.2896785542475Q1478.7986436143692 416.21286984100203 1477.3833151121858 421.6755412529388Q1475.9431562854024 427.1382126648756 1475.9431562854024 433.9168912805971L1475.9431562854024 433.9168912805971Q1475.9431562854024 444.12215469107895 1478.6248313421715 451.7947249923901Q1481.3065063989402 459.49212561830103 1486.4960442402803 463.7877717740513Q1491.6855820816204 468.05858760520186 1499.1843401107335 468.05858760520186L1499.1843401107335 468.05858760520186ZM1586.6119130263214 479.3315549734714L1586.6119130263214 479.3315549734714Q1580.3546712271936 479.3315549734714 1574.370562998663 476.6498799167024Q1568.3616244455325 473.96820485993345 1563.4452201747895 468.6048547463955Q1558.5288159040465 463.24150463285764 1555.6733285750793 455.02266719035276Q1552.8178412461125 446.8038297478479 1552.8178412461125 435.8784869239744L1552.8178412461125 435.8784869239744Q1552.8178412461125 424.6303498803046 1555.8471408472774 416.65981568379686Q1558.9012707730421 408.71411181188887 1563.8921660175843 403.62389526894776Q1568.9078915867262 398.5336787260067 1574.9913211136559 396.1003069152349Q1581.0747506405855 393.69176542906274 1587.3319924397128 393.69176542906274L1587.3319924397128 393.69176542906274Q1593.0429670976469 393.69176542906274 1597.6117468239936 395.47954880024207Q1602.1556962257414 397.26733217142134 1605.656771994301 400.3959530709852Q1609.1330174382606 403.52457397054894 1611.0946130816378 407.8202201262992L1611.0946130816378 407.8202201262992L1611.0946130816378 358.6561774188683L1622.8890172665015 358.6561774188683L1624.6768006376806 358.6561774188683L1624.6768006376806 359.897693648854Q1623.609096679893 360.9902279312413 1623.3359631092962 362.23174416122697Q1623.087659863299 363.4732603912126 1623.087659863299 366.52739031697723L1623.087659863299 366.52739031697723L1623.2614721354971 464.85547573183896Q1623.2614721354971 468.05858760520186 1623.5346057060938 471.18720850476564Q1623.782908952091 474.3158294043294 1625.0492555066762 477.54377160229205L1625.0492555066762 477.54377160229205L1612.3609596362235 477.54377160229205Q1611.4670679506335 475.40836368671677 1611.0946130816378 473.2481254465418Q1610.7469885372416 471.1127175309665 1610.647667238843 469.05180058919035Q1610.573176265044 466.9908836474142 1610.573176265044 464.85547573183896L1610.573176265044 464.85547573183896Q1608.065313480473 469.1511218875892 1604.4897467381143 472.453555059351Q1600.9141799957556 475.7559882311127 1596.4447215678074 477.54377160229205Q1591.9752631398592 479.3315549734714 1586.6119130263214 479.3315549734714L1586.6119130263214 479.3315549734714ZM1588.5735086696986 468.05858760520186L1588.5735086696986 468.05858760520186Q1594.4831259244302 468.05858760520186 1598.5801294833827 465.65004611902975Q1602.7019633669352 463.24150463285764 1605.2098261515057 458.87136750330825Q1607.6928586114773 454.4764000491591 1608.859883867664 448.66610409282634Q1610.0269091238501 442.85580813649364 1610.0269091238501 436.2509417929701L1610.0269091238501 436.2509417929701Q1610.0269091238501 427.1382126648756 1607.6928586114773 419.8877578817595Q1605.3836384237043 412.63730309864343 1600.3679128545618 408.44097824129204Q1595.3770176100197 404.2446533839406 1587.505804711911 404.2446533839406L1587.505804711911 404.2446533839406Q1582.1424545983732 404.2446533839406 1577.9461297410217 406.30557032571676Q1573.7249745590702 408.36648726749286 1570.9688085285024 412.2896785542475Q1568.1878121733344 416.21286984100203 1566.772483671151 421.6755412529388Q1565.3323248443676 427.1382126648756 1565.3323248443676 433.9168912805971L1565.3323248443676 433.9168912805971Q1565.3323248443676 444.12215469107895 1568.0139999011367 451.7947249923901Q1570.6956749579053 459.49212561830103 1575.8852127992454 463.7877717740513Q1581.0747506405855 468.05858760520186 1588.5735086696986 468.05858760520186L1588.5735086696986 468.05858760520186ZM1656.856901318908 508.65616832573187L1656.856901318908 508.65616832573187Q1651.145926660974 508.65616832573187 1646.4033346624292 506.8683849545526Q1641.6607426638839 505.0806015833733 1638.0851759215252 501.67884711321267L1638.0851759215252 501.67884711321267L1643.647168631861 492.91374252951414L1644.7148725896486 491.2997714305328L1645.7825765474363 492.0198508439245Q1646.130201091832 493.4600096707078 1647.024092777422 494.4283923300966Q1647.9179844630116 495.4216053140851 1650.4258472475826 497.03557641306645L1650.4258472475826 497.03557641306645Q1652.039818346564 497.55701322966036 1653.8276017177432 497.83014680025724Q1655.6153850889223 498.10328037085407 1657.5769807323 498.10328037085407L1657.5769807323 498.10328037085407Q1662.4188940292438 498.10328037085407 1665.7213272010054 495.7692298584811Q1669.0237603727674 493.4600096707078 1671.5316231573383 488.6180963737638Q1674.0394859419093 483.80101340141965 1676.3487061296823 476.47606764450444L1676.3487061296823 476.47606764450444L1691.9173196537022 428.3797288948612Q1694.5989947104713 420.16089145235634 1697.0820271704424 412.11586628204947Q1699.5898899550134 404.0708411117426 1700.483781640603 395.8520036692378L1700.483781640603 395.8520036692378L1713.3707201078537 395.8520036692378Q1712.1043735532685 404.0708411117426 1709.4226984964994 412.4634908264454Q1706.7410234397307 420.880970865748 1703.7117238385658 429.2736205804508L1703.7117238385658 429.2736205804508L1683.3260273422015 486.83031300258455Q1679.0303811864515 498.8233597842457 1672.326193544529 503.73976405498877Q1665.6220059026068 508.65616832573187 1656.856901318908 508.65616832573187L1656.856901318908 508.65616832573187ZM1676.5225184018805 479.87782211466504L1642.3808220772758 395.8520036692378L1655.7891973611204 395.8520036692378L1682.2583233844139 463.9615840462493L1676.5225184018805 479.87782211466504Z " fill="#171717" transform="matrix(0.5106892734223221,0,0,0.5106892734223221,0,78.53646785220923)"/></g></svg>